<svg width="32" height="32" viewBox="0 0 32 32" fill="none" xmlns="http://www.w3.org/2000/svg">
<path d="M16 31C13.0333 31 10.1332 30.1203 7.66645 28.4721C5.19971 26.8238 3.27712 24.4812 2.14181 21.7403C1.00649 18.9994 0.709442 15.9834 1.28822 13.0737C1.867 10.1639 3.29561 7.49119 5.3934 5.3934C7.49119 3.29562 10.1639 1.86701 13.0736 1.28823C15.9834 0.709449 18.9994 1.0065 21.7403 2.14181C24.4811 3.27713 26.8238 5.19972 28.472 7.66645C30.1203 10.1332 31 13.0333 31 16C31 19.9783 29.4196 23.7936 26.6066 26.6066C23.7936 29.4197 19.9782 31 16 31ZM16 3.00001C13.4288 3.00001 10.9154 3.76244 8.77759 5.1909C6.63975 6.61936 4.9735 8.64968 3.98957 11.0251C3.00563 13.4006 2.74818 16.0144 3.24979 18.5362C3.7514 21.0579 4.98953 23.3743 6.80761 25.1924C8.62569 27.0105 10.9421 28.2486 13.4638 28.7502C15.9856 29.2518 18.5994 28.9944 20.9749 28.0104C23.3503 27.0265 25.3806 25.3603 26.8091 23.2224C28.2376 21.0846 29 18.5712 29 16C29 12.5522 27.6304 9.24559 25.1924 6.80762C22.7544 4.36965 19.4478 3.00001 16 3.00001Z" fill="#121212"/>
<path d="M20.24 21.66L15.29 16.71C15.1973 16.6166 15.124 16.5057 15.0742 16.3839C15.0245 16.2621 14.9992 16.1316 15 16V8H17V15.59L21.66 20.24L20.24 21.66Z" fill="#121212"/>
</svg>
