<svg width="37" height="37" viewBox="0 0 37 37" fill="none" xmlns="http://www.w3.org/2000/svg">
<path d="M31.3151 8.47913H5.6849C5.19936 8.47913 4.7337 8.67201 4.39038 9.01533C4.04705 9.35866 3.85417 9.82432 3.85417 10.3099L3.85417 27.3967C3.85417 27.8822 4.04705 28.3478 4.39038 28.6912C4.7337 29.0345 5.19936 29.2274 5.6849 29.2274H31.3151C31.8006 29.2274 32.2663 29.0345 32.6096 28.6912C32.9529 28.3478 33.1458 27.8822 33.1458 27.3967V10.3099C33.1458 9.82432 32.9529 9.35866 32.6096 9.01533C32.2663 8.67201 31.8006 8.47913 31.3151 8.47913ZM30.9245 9.69961L18.5 19.3048L6.07545 9.69961H30.9245ZM5.07465 27.1465V10.4685L14.4785 17.7365L5.07465 27.1465ZM5.9351 28.0069L15.4488 18.4932L18.1216 20.5619C18.2284 20.6441 18.3592 20.6886 18.4939 20.6886C18.6286 20.6886 18.7594 20.6441 18.8661 20.5619L21.5512 18.4932L31.0649 28.0069H5.9351ZM31.9253 27.1465L22.5215 17.7365L31.9253 10.4685V27.1465Z" fill="white"/>
</svg>
