<svg width="49" height="49" viewBox="0 0 49 49" fill="none" xmlns="http://www.w3.org/2000/svg">
<path d="M30.6248 11.2292H18.3748C14.3936 11.2292 11.229 14.3938 11.229 18.375V30.625C11.229 34.6063 14.3936 37.7708 18.3748 37.7708H30.6248C34.6061 37.7708 37.7707 34.6063 37.7707 30.625V18.375C37.7707 14.3938 34.6061 11.2292 30.6248 11.2292Z" stroke="white" stroke-width="2" stroke-miterlimit="10" stroke-linecap="round" stroke-linejoin="round"/>
<path d="M31.6458 17.3542C32.2096 17.3542 32.6667 16.8971 32.6667 16.3333C32.6667 15.7695 32.2096 15.3125 31.6458 15.3125C31.082 15.3125 30.625 15.7695 30.625 16.3333C30.625 16.8971 31.082 17.3542 31.6458 17.3542Z" fill="white"/>
<path d="M24.5 30.625C27.8827 30.625 30.625 27.8827 30.625 24.5C30.625 21.1173 27.8827 18.375 24.5 18.375C21.1173 18.375 18.375 21.1173 18.375 24.5C18.375 27.8827 21.1173 30.625 24.5 30.625Z" stroke="white" stroke-width="2" stroke-miterlimit="10" stroke-linecap="round" stroke-linejoin="round"/>
</svg>
