<svg width="48" height="48" viewBox="0 0 48 48" fill="none" xmlns="http://www.w3.org/2000/svg">
<path d="M30 11H18C14.1 11 11 14.1 11 18V30C11 33.9 14.1 37 18 37H30C33.9 37 37 33.9 37 30V18C37 14.1 33.9 11 30 11Z" stroke="#FFC107" stroke-width="2" stroke-miterlimit="10" stroke-linecap="round" stroke-linejoin="round"/>
<path d="M31 17C31.5523 17 32 16.5523 32 16C32 15.4477 31.5523 15 31 15C30.4477 15 30 15.4477 30 16C30 16.5523 30.4477 17 31 17Z" fill="#FFC107"/>
<path d="M24 30C27.3137 30 30 27.3137 30 24C30 20.6863 27.3137 18 24 18C20.6863 18 18 20.6863 18 24C18 27.3137 20.6863 30 24 30Z" stroke="#FFC107" stroke-width="2" stroke-miterlimit="10" stroke-linecap="round" stroke-linejoin="round"/>
</svg>
