<svg width="50" height="50" viewBox="0 0 50 50" fill="none" xmlns="http://www.w3.org/2000/svg">
<path d="M6.25 22.9167L11.4177 10.8587C12.0743 9.32664 13.5807 8.33333 15.2475 8.33333H34.7525C36.4194 8.33333 37.9256 9.32664 38.5823 10.8587L43.75 22.9167M6.25 22.9167H43.75M6.25 22.9167V37.5M43.75 22.9167V37.5M6.25 37.5V38.5417C6.25 40.2675 7.6491 41.6667 9.375 41.6667C11.1009 41.6667 12.5 40.2675 12.5 38.5417V37.5M6.25 37.5H12.5M43.75 37.5V38.5417C43.75 40.2675 42.3508 41.6667 40.625 41.6667C38.8992 41.6667 37.5 40.2675 37.5 38.5417V37.5M43.75 37.5H37.5M37.5 37.5H12.5" stroke="black" stroke-width="2" stroke-linecap="round" stroke-linejoin="round"/>
</svg>
