<svg width="45" height="45" viewBox="0 0 45 45" fill="none" xmlns="http://www.w3.org/2000/svg">
<path d="M36.5537 29.4873C35.2705 28.1689 31.6231 25.6992 29.2324 25.6992C28.6787 25.6992 28.1953 25.8223 27.7998 26.0771C26.6309 26.8242 25.6992 27.4043 25.251 27.4043C25.0049 27.4043 24.7412 27.1846 24.1611 26.6836L24.0645 26.5957C22.4561 25.1982 22.1133 24.8379 21.4893 24.1875L21.3311 24.0205C21.2168 23.9062 21.1201 23.8008 21.0234 23.7041C20.4785 23.1416 20.083 22.7373 18.6856 21.1553L18.624 21.085C17.9561 20.3291 17.5166 19.8369 17.4902 19.4766C17.4639 19.125 17.7715 18.5537 18.5537 17.4902C19.5029 16.207 19.5381 14.625 18.668 12.7881C17.9736 11.3379 16.8398 9.94922 15.8379 8.72754L15.75 8.62207C14.8887 7.56738 13.8867 7.04004 12.7705 7.04004C11.5313 7.04004 10.5029 7.70801 9.95801 8.05957C9.91406 8.08594 9.87012 8.12109 9.82617 8.14746C8.60449 8.9209 7.7168 9.98438 7.38281 11.0654C6.88184 12.6914 6.54785 14.8008 8.94727 19.1865C11.0215 22.9834 12.9023 25.5322 15.8906 28.5996C18.7031 31.4824 19.9512 32.4141 22.7461 34.4355C25.8574 36.6855 28.8457 37.9775 30.9375 37.9775C32.8799 37.9775 34.4092 37.9775 36.5889 35.3496C38.874 32.5898 37.9248 30.9023 36.5537 29.4873ZM35.543 34.4004C33.7852 36.5273 32.7744 36.5273 30.9463 36.5273C29.1621 36.5273 26.3936 35.2969 23.5459 33.249C20.8213 31.2803 19.6084 30.375 16.875 27.5713C13.9834 24.6094 12.1641 22.1396 10.1602 18.4746C8.04199 14.5986 8.2793 12.9023 8.70996 11.5049C8.93848 10.7578 9.62402 9.95801 10.5557 9.37793C10.5996 9.35156 10.6436 9.31641 10.6963 9.29004C11.1621 8.99121 11.9355 8.49023 12.7793 8.49023C13.4824 8.49023 14.1064 8.8418 14.7041 9.57129L14.792 9.67676C17.0332 12.4189 18.7822 14.8447 17.4639 16.6377C16.5322 17.8945 16.04 18.7471 16.1191 19.626C16.1895 20.4785 16.7607 21.1201 17.6221 22.0869L17.6836 22.1572C19.0986 23.7568 19.5029 24.1787 20.0654 24.75C20.1621 24.8467 20.2588 24.9521 20.3731 25.0664L20.5313 25.2334C21.1816 25.9102 21.542 26.2793 23.1943 27.7295L23.291 27.8174C23.9942 28.4326 24.5127 28.8809 25.2686 28.8809C26.0508 28.8809 26.9121 28.3887 28.5469 27.3428C28.7139 27.2373 28.9512 27.1758 29.25 27.1758C31.1572 27.1758 34.4444 29.3555 35.5957 30.542C36.6504 31.6143 37.1777 32.4228 35.543 34.4004Z" fill="white"/>
</svg>
