<svg width="32" height="32" viewBox="0 0 32 32" fill="none" xmlns="http://www.w3.org/2000/svg">
<g clip-path="url(#clip0_16_16)">
<path d="M22.4 11.52C23.4604 11.52 24.32 10.6604 24.32 9.59999C24.32 8.53961 23.4604 7.67999 22.4 7.67999C21.3396 7.67999 20.48 8.53961 20.48 9.59999C20.48 10.6604 21.3396 11.52 22.4 11.52Z" stroke="#121212" stroke-width="2" stroke-miterlimit="10" stroke-linecap="round"/>
<path d="M30.08 3.51998C30.08 2.63614 29.3638 1.91998 28.48 1.91998C28.3802 1.91998 18.9594 1.92126 18.9594 1.92126C18.1082 1.92126 17.2934 1.87646 16.8211 2.34878L2.27457 16.8947C1.80161 17.367 1.80161 18.1337 2.27457 18.6061L13.3939 29.7254C13.8662 30.1977 14.633 30.1977 15.1053 29.7254L29.6512 15.1789C30.1235 14.7072 30.0787 13.9117 30.0787 13.0413C30.0787 13.0413 30.08 3.61982 30.08 3.51998Z" stroke="#121212" stroke-width="2" stroke-miterlimit="10" stroke-linecap="round"/>
</g>
<defs>
<clipPath id="clip0_16_16">
<rect width="32" height="32" fill="white"/>
</clipPath>
</defs>
</svg>
