<svg width="36" height="36" viewBox="0 0 36 36" fill="none" xmlns="http://www.w3.org/2000/svg">
<path d="M18 18C21.3137 18 24 15.3137 24 12C24 8.68629 21.3137 6 18 6C14.6863 6 12 8.68629 12 12C12 15.3137 14.6863 18 18 18Z" fill="white"/>
<path d="M30 28.5V30C30 30.3978 29.842 30.7794 29.5607 31.0607C29.2794 31.342 28.8978 31.5 28.5 31.5H7.5C7.10217 31.5 6.72064 31.342 6.43934 31.0607C6.15804 30.7794 6 30.3978 6 30V28.5C6 26.113 6.94821 23.8239 8.63604 22.136C10.3239 20.4482 12.613 19.5 15 19.5H21C23.3869 19.5 25.6761 20.4482 27.364 22.136C29.0518 23.8239 30 26.113 30 28.5Z" fill="white"/>
</svg>
